# xmcd
#
# Track frame offsets:
#	150
#	14357
#	18940
#	32192
#	36500
#	45700
#	48157
#	61307
#	75420
#	88782
#	101420
#	104377
#	120012
#	133265
#	148617
#	161300
#	176170
#	180695
#	195082
#	208220
#	219890
#	233760
#	248920
#	253340
#	267737
#
# Disc length: 3754
#
# Revision: 2
# Processed by: cddbd v1.5.1PL0 Copyright (c) Steve Scherf et al.
# Submitted via: ExactAudioCopy v0.95a4
# Normalized: r1:TRMNUM
#
DISCID=590ea819
DTITLE=Various Artist - Chasin' That Devil Music
DYEAR=1900
DGENRE=
TTITLE0=Charlie Patton - Green River Blues
TTITLE1=Booker Miller - on Charlie Patton
TTITLE2=Willie Brown - Future Blues
TTITLE3=A. C. Speir - on Charlie Patton and Willie Brown
TTITLE4=Hayes McMullan - Looka Here Woman
TTITLE5=Joe Callicott - on Garfield Akers
TTITLE6=Garfield Akers with Joe Callicott - Cottonfield Blues, Part 1
TTITLE7=William Harris - Bull Frog Blues
TTITLE8=Rube Lacey - Ham Hound and Gravy
TTITLE9=Rev. D. C. Rice - I'm Pressing On
TTITLE10=Ishmon Bracey - on Performing
TTITLE11=Ishmon Bracey - Woman Woman Blues
TTITLE12=Blind Joe Reynolds - Outside Woman Blues
TTITLE13=Son House - Jinx Blues
TTITLE14=Junior Brooks - Lone Town Blues
TTITLE15=King Solomon Hill - The Dead Gone Train
TTITLE16=Booker Miller - on Charlie Patton #2
TTITLE17=Charlie Patton - A Spoonful Blues
TTITLE18=Charley Booker - No Ridin' Blues
TTITLE19=The Confiners - Harmonica Boogie
TTITLE20=Skip James - Illinois Blues
TTITLE21=Tommy Johnson - Alcohol and Jake Blues
TTITLE22=Ishmon Bracey - on Tommy Johnson's Death
TTITLE23=Blind Roosevelt Graves - Take Your Burdens to the Lord
TTITLE24=Dave Edwards - Done Sold My Soul to the Devil
EXTD=
EXTT0=
EXTT1=Interview
EXTT2=
EXTT3=Interview
EXTT4=
EXTT5=Interview
EXTT6=
EXTT7=
EXTT8=
EXTT9=
EXTT10=Interview
EXTT11=
EXTT12=
EXTT13=
EXTT14=
EXTT15=
EXTT16=Interview
EXTT17=
EXTT18=
EXTT19=
EXTT20=
EXTT21=
EXTT22=Interview
EXTT23=
EXTT24=
PLAYORDER=
